<?xml version="1.0" encoding="iso-8859-1"?>
<!-- Generator: Adobe Illustrator 19.0.0, SVG Export Plug-In . SVG Version: 6.00 Build 0)  -->
<svg version="1.1" id="Capa_1" xmlns="http://www.w3.org/2000/svg" xmlns:xlink="http://www.w3.org/1999/xlink" x="0px" y="0px"
	 viewBox="0 0 480 480" style="enable-background:new 0 0 480 480;" xml:space="preserve">
<g>
	<g>
		<g>
			<path d="M234.449,68.504c-6.563,4.36-10.615,11.622-10.88,19.496c0,4.418,3.582,8,8,8s8-3.582,8-8c0-2.704,1.248-4,5.128-7.2
				c6.557-4.357,10.606-11.612,10.872-19.48c-0.262-7.873-4.316-15.133-10.88-19.488c-3.872-3.2-5.12-4.496-5.12-7.2
				c0-2.568,1.024-3.768,5.12-7.2c6.55-4.342,10.601-11.579,10.88-19.432c0-4.418-3.582-8-8-8s-8,3.582-8,8
				c0,2.568-1.024,3.768-5.12,7.2c-6.552,4.344-10.604,11.584-10.88,19.44c0.266,7.868,4.315,15.123,10.872,19.48
				c3.88,3.2,5.128,4.496,5.128,7.2C239.569,64.024,238.321,65.28,234.449,68.504z"/>
			<path d="M186.449,68.504c-6.563,4.36-10.615,11.622-10.88,19.496c0,4.418,3.582,8,8,8s8-3.582,8-8c0-2.704,1.248-4,5.128-7.2
				c6.557-4.357,10.606-11.612,10.872-19.48c-0.262-7.873-4.316-15.133-10.88-19.488c-3.872-3.2-5.12-4.496-5.12-7.2
				c0-2.568,1.024-3.768,5.12-7.2c6.55-4.342,10.601-11.579,10.88-19.432c0-4.418-3.582-8-8-8s-8,3.582-8,8
				c0,2.568-1.024,3.768-5.12,7.2c-6.552,4.344-10.604,11.584-10.88,19.44c0.266,7.868,4.315,15.123,10.872,19.48
				c3.88,3.2,5.128,4.496,5.128,7.2C191.569,64.024,190.321,65.28,186.449,68.504z"/>
			<path d="M282.449,68.504c-6.563,4.36-10.615,11.622-10.88,19.496c0,4.418,3.582,8,8,8s8-3.582,8-8c0-2.704,1.248-4,5.128-7.2
				c6.557-4.357,10.606-11.612,10.872-19.48c-0.262-7.873-4.316-15.133-10.88-19.488c-3.872-3.2-5.12-4.496-5.12-7.2
				c0-2.568,1.024-3.768,5.12-7.2c6.55-4.342,10.601-11.579,10.88-19.432c0-4.418-3.582-8-8-8s-8,3.582-8,8
				c0,2.568-1.024,3.768-5.12,7.2c-6.552,4.344-10.604,11.584-10.88,19.44c0.266,7.868,4.315,15.123,10.872,19.48
				c3.88,3.2,5.128,4.496,5.128,7.2C287.569,64.024,286.321,65.28,282.449,68.504z"/>
		</g>
	</g>
</g>

</svg>
